<?xml version="1.0" encoding="UTF-8"?>
<svg id="Layer_1" data-name="Layer 1" xmlns="http://www.w3.org/2000/svg" viewBox="0 0 512 512">
  <defs>
    <style>
      .cls-1 {
        fill: #ff490c;
      }

      .cls-1, .cls-2 {
        stroke-width: 0px;
      }

      .cls-2 {
        fill: #1c1f21;
      }
    </style>
  </defs>
  <rect class="cls-2" width="512" height="512"/>
  <g>
    <path class="cls-1" d="m94.8,232.93c5.6-43.06,27.64-81.36,62.05-107.84,7.1-5.46,14.54-10.28,22.26-14.45l28.94-50.95c-26.64,6.54-51.7,18.58-74.02,35.75-42.33,32.58-69.43,79.69-76.33,132.66-3.73,28.68-1.28,57.23,6.91,84.09l28.99-51.04c-.39-9.33-.03-18.77,1.2-28.22Z"/>
    <path class="cls-1" d="m384.82,154.76c24.32,31.59,35.96,70.15,33.37,109.59l28.8,48.98c3.36-10.87,5.81-22.1,7.31-33.61,6.89-52.97-7.25-105.44-39.83-147.78-29.64-38.51-71.14-64.25-117.54-73.83l28.68,48.78c22.9,10.83,43.19,27.05,59.22,47.87Z"/>
    <path class="cls-1" d="m337.34,394.67c-24.63,14.32-52.32,21.82-81.22,21.82s-57.22-7.65-81.59-21.78h-60.55c37.37,37.88,87.94,59.19,142.14,59.19,44.43,0,86.55-14.36,121.84-41.52,7.15-5.5,13.85-11.43,20.12-17.73h-60.74Z"/>
    <polygon class="cls-1" points="279.7 104.26 232.3 104.26 132.07 354.12 172.77 354.12 241.43 184.39 256.01 148 339.11 354.12 379.93 354.12 279.7 104.26"/>
  </g>
</svg>